/* XPM */
static char *bitcoin128[] = {
/* columns rows colors chars-per-pixel */
"128 128 2 1 ",
"  c None",
". c #6754FF",
/* pixels */
"                                                                                                                                ",
"                                                                                                                                ",
"                                                                                                                                ",
"                                                                                                                                ",
"                                                                                                                                ",
"                                                                                                                                ",
"                                                                                                                                ",
"                                                                                                                                ",
"                                                                                                                                ",
"                                                                                                                                ",
"                                                                                                                                ",
"                                                                                                                                ",
"                                                                                                                                ",
"                                                                                                                                ",
"                                                                                                                                ",
"                                                                                                                                ",
"                                                                                                                                ",
"                                                                                                                                ",
"                                                                                                                                ",
"                                                                                                                                ",
"                                                                                                                                ",
"                                                                                                                                ",
"                                                                                                                                ",
"                                                                                                                                ",
"                                                                                                                                ",
"                                                                                                                                ",
"                                                                                                                                ",
"                                                                                                                                ",
"                                               .......                                                                          ",
"                                             ...........                                                                        ",
"                                            .............                                                                       ",
"                                           ...............                                                                      ",
"                                          ................                                                                      ",
"                                          .................                            .........                                ",
"                                          .................                         ...............                             ",
"                                         ..................                        ..................                           ",
"                                         ..................                      .....................                          ",
"                                         .....................                  .......................                         ",
"                                         ...........................            ........................                        ",
"                                          ................................     ..........................                       ",
"                                          ................. .............................................                       ",
"                                          ................        ........................................                      ",
"                                           ..............               ..................................                      ",
"                                            ............                    ...............................                     ",
"                                             ..........                     ...............................                     ",
"                                                .....                       ...............................                     ",
"                                                                            ...............................                     ",
"                                                                            ...............................                     ",
"                                                                            ...............................                     ",
"                                                                            ...............................                     ",
"                                                                            ...............................                     ",
"                                                                            ...............................                     ",
"                                                                             ..............................                     ",
"                                                                             ..............................                     ",
"                                                                             .............................                      ",
"                                                                              ............................                      ",
"                                                                              ...........................                       ",
"                                         .....                              ............................                        ",
"                                     ..............                       ..............................                        ",
"                                  ...................                   .......  ......................                         ",
"                                .......................                ......     ...................                           ",
"                               ..........................            .......       .................                            ",
"                             .............................         .......           .............                              ",
"                            ...............................      .......                .......                                 ",
"                           .................................    ......                                                          ",
"                          ................................... .......                                                           ",
"                          .........................................                                                             ",
"                         ........................................                                                               ",
"                        ........................................                                                                ",
"                        ........................................                                                                ",
"                       .........................................                                                                ",
"                       ..........................................                                                               ",
"                      ...........................................                                                               ",
"                      ...........................................                                                               ",
"                      ...........................................                                                               ",
"                      ............................................                                                              ",
"                      ............................................                                                              ",
"                     .............................................                                                              ",
"                     .............................................                                                              ",
"                     .............................................                                                              ",
"                     .............................................                                                              ",
"                     .............................................                                                              ",
"                      ............................................                                                              ",
"                      ............................................                                                              ",
"                      ...........................................                                                               ",
"                      ...........................................                                                               ",
"                      ...........................................                                                               ",
"                       .........................................                                                                ",
"                       .........................................                                                                ",
"                        ........................................                                                                ",
"                        .......................................                                                                 ",
"                         .....................................                                                                  ",
"                          ....................................                                                                  ",
"                          ...................................                                                                   ",
"                           .................................                                                                    ",
"                            ...............................                                                                     ",
"                             .............................                                                                      ",
"                               ..........................                                                                       ",
"                                .......................                                                                         ",
"                                  ...................                                                                           ",
"                                     ..............                                                                             ",
"                                          ...                                                                                   ",
"                                                                                                                                ",
"                                                                                                                                ",
"                                                                                                                                ",
"                                                                                                                                ",
"                                                                                                                                ",
"                                                                                                                                ",
"                                                                                                                                ",
"                                                                                                                                ",
"                                                                                                                                ",
"                                                                                                                                ",
"                                                                                                                                ",
"                                                                                                                                ",
"                                                                                                                                ",
"                                                                                                                                ",
"                                                                                                                                ",
"                                                                                                                                ",
"                                                                                                                                ",
"                                                                                                                                ",
"                                                                                                                                ",
"                                                                                                                                ",
"                                                                                                                                ",
"                                                                                                                                ",
"                                                                                                                                ",
"                                                                                                                                ",
"                                                                                                                                ",
"                                                                                                                                "
};
