/* XPM */
static char * bitcoin32_xpm[] = {
"32 32 64 1",
" 	c None",
".	c #9595AA",
"+	c #8E99AF",
"@	c #8D9BB0",
"#	c #89899D",
"$	c #8D98AD",
"%	c #909CB1",
"&	c #909CB2",
"*	c #939FB5",
"=	c #8F9BB0",
"-	c #8C98AD",
";	c #919DB2",
">	c #909DB2",
",	c #8D99AE",
"'	c #8C9AAD",
")	c #909BB1",
"!	c #8E98B1",
"~	c #8C99AD",
"{	c #8D9AAE",
"]	c #8099B3",
"^	c #8F9CB1",
"/	c #8C99AE",
"(	c #809999",
"_	c #929EB6",
":	c #8E9BB0",
"<	c #8BA2B9",
"[	c #8F9BB1",
"}	c #8E9AAE",
"|	c #8E9AAF",
"1	c #8F99AD",
"2	c #909DB1",
"3	c #9494AE",
"4	c #8B97AD",
"5	c #929FB4",
"6	c #8894AC",
"7	c #909CB0",
"8	c #8E9AB0",
"9	c #909BA6",
"0	c #929FB5",
"a	c #93A0B5",
"b	c #8B9CAE",
"c	c #93A0B6",
"d	c #94A1B7",
"e	c #8D9AAF",
"f	c #8C99B3",
"g	c #8F9AAF",
"h	c #8B97AE",
"i	c #8B9BAA",
"j	c #8C98AE",
"k	c #809F9F",
"l	c #94A1AE",
"m	c #9199B3",
"n	c #9292B6",
"o	c #94A0B6",
"p	c #8D99AF",
"q	c #8A98AC",
"r	c #8F9AB0",
"s	c #8899AA",
"t	c #909BB0",
"u	c #8F8FAF",
"v	c #8D97AD",
"w	c #8F9FAF",
"x	c #929BB6",
"y	c #8B8BA2",
"                                ",
"             .+@@+#             ",
"            $%&**&=$            ",
"           -;>,,,,>;-           ",
"          ')=,,,,,,=)!          ",
"          ~*,,,,,,,,*{          ",
"         ],^,,,,,,,,^/(         ",
"         _,:,,,,,,,,:,_         ",
"         <,[,,,,,,,,[,<         ",
"          ,*,,,,,,,,*,          ",
"          }%|,,,,,,|%}          ",
"    123    45[,,,,[54    321    ",
"  67=8=89   +%0aa0%+   9[=8=76  ",
" b[c8|=def   1)gg)1   fed=|8c[h ",
" e*,,,,,d{            {d,,,,,*e ",
"i,|,,,,,%jk          k/%,,,,,|,i",
"',,,,,,,=,l          l,=,,,,,,,'",
"m,|,,,,,&,n          n,&,,,,,|,m",
" $o,,,,,dp   1)gg)1   pd,,,,,c$ ",
" qro=|^d|s  +%0aa0%+  s|d^|=orq ",
"  i^=|^tu  v5[,,,,[54  wt^|=^i  ",
"    wxy   }%|,,,,,,|%}   yxw    ",
"          ,*,,,,,,,,*,          ",
"         <,[,,,,,,,,[,<         ",
"         _,:,,,,,,,,:,_         ",
"         ],^,,,,,,,,^/(         ",
"          ~*,,,,,,,,*{          ",
"          ')=,,,,,,=)!          ",
"           -;>,,,,>;-           ",
"            $%&**&=$            ",
"             .)@@+#             ",
"                                "};
