/* XPM */
static char * bitcoin16_xpm[] = {
"16 16 36 1",
" 	c None",
".	c #8E99B0",
"+	c #8F9CB0",
"@	c #8D99AF",
"#	c #95A2B8",
"$	c #8F9BB1",
"%	c #8D99AE",
"&	c #909CB2",
"*	c #909DB2",
"=	c #8D99AC",
"-	c #929FB4",
";	c #919EB3",
">	c #8D98AD",
",	c #8F9CB2",
"'	c #8D9AAD",
")	c #8D9AAE",
"!	c #8F97AD",
"~	c #8F9BB0",
"{	c #8F9CB1",
"]	c #929EB4",
"^	c #8C99AE",
"/	c #8D9AAF",
"(	c #939FB5",
"_	c #8E9AAF",
":	c #8D98AE",
"<	c #9199B3",
"[	c #929EAA",
"}	c #94A1B7",
"|	c #94A0B6",
"1	c #8E99AE",
"2	c #9292AA",
"3	c #8A95AA",
"4	c #8F9BB2",
"5	c #8E9AAE",
"6	c #8D99AD",
"7	c #909CB1",
"                ",
"      .++.      ",
"     @#$$#@     ",
"     %&%%&%     ",
"     @*%%*@     ",
"     =-;;-=     ",
" >,*' )&&) '*,' ",
"!~{]^      ^]{~!",
"/(%_:<    <:_%(/",
"[_}|1 )&&) 1|}_2",
" 345 6-;;-6 543 ",
"     ^*%%*^     ",
"     %&%%&%     ",
"     @#$$#@     ",
"      .7+.      ",
"                "};
