/* XPM */
static char * bitcoin64_xpm[] = {
"64 64 105 2",
"  	c None",
". 	c #80AAAA",
"+ 	c #939FB3",
"@ 	c #8D9BB0",
"# 	c #8D9BAE",
"$ 	c #919BB0",
"% 	c #8F9BAE",
"& 	c #9299AF",
"* 	c #8E9CAF",
"= 	c #8F9BB0",
"- 	c #8E9AB0",
"; 	c #919DB2",
"> 	c #929FB4",
", 	c #8E9AAF",
"' 	c #8F9BB1",
") 	c #909CB1",
"! 	c #8E95AA",
"~ 	c #8E8EAA",
"{ 	c #909CB0",
"] 	c #8F9CB2",
"^ 	c #93A0B6",
"/ 	c #909CB2",
"( 	c #8D99AE",
"_ 	c #909BB1",
": 	c #8F9BAF",
"< 	c #8E97AA",
"[ 	c #8E9BB0",
"} 	c #8F99AD",
"| 	c #8F9AAF",
"1 	c #93A0B5",
"2 	c #8D99AD",
"3 	c #939FB5",
"4 	c #9292AA",
"5 	c #8D9AAF",
"6 	c #8F9CB1",
"7 	c #929EAA",
"8 	c #8D99AF",
"9 	c #8D9AAE",
"0 	c #919EB4",
"a 	c #8D98AE",
"b 	c #8E9CAA",
"c 	c #8E9AAC",
"d 	c #8D9BAD",
"e 	c #8C9AAD",
"f 	c #8A99AF",
"g 	c #8D98AD",
"h 	c #809999",
"i 	c #8D9AAD",
"j 	c #8EAAAA",
"k 	c #8C99AD",
"l 	c #8E98AE",
"m 	c #9999CC",
"n 	c #929EB4",
"o 	c #8C98B1",
"p 	c #8D97AC",
"q 	c #8D9CB1",
"r 	c #909AAF",
"s 	c #8E9CB1",
"t 	c #9292B6",
"u 	c #8C99AE",
"v 	c #8E99AE",
"w 	c #929292",
"x 	c #929CB1",
"y 	c #8C99A6",
"z 	c #8E9CB0",
"A 	c #929FB5",
"B 	c #919EB3",
"C 	c #8F9CB0",
"D 	c #8899AA",
"E 	c #8E99AF",
"F 	c #8D98AB",
"G 	c #94A0B6",
"H 	c #8D95AB",
"I 	c #8E98B1",
"J 	c #919DB3",
"K 	c #8D96AD",
"L 	c #8E9DB1",
"M 	c #8B9BAE",
"N 	c #8C98B0",
"O 	c #909DB2",
"P 	c #8B9BAA",
"Q 	c #9595AA",
"R 	c #95AABF",
"S 	c #9099B0",
"T 	c #8D98AF",
"U 	c #8E9AAE",
"V 	c #8B97AD",
"W 	c #8F97AF",
"X 	c #8A95AA",
"Y 	c #8C95AD",
"Z 	c #8E96AB",
"` 	c #8C96AA",
" .	c #909BB0",
"..	c #8995AE",
"+.	c #909BAF",
"@.	c #8080AA",
"#.	c #8D97AE",
"$.	c #8F99B0",
"%.	c #8C9CAD",
"&.	c #8D9EB0",
"*.	c #8D95B0",
"=.	c #959FB5",
"-.	c #8599AD",
";.	c #9399B3",
">.	c #8F9CAF",
"                                                                                                                                ",
"                                                                                                                                ",
"                                                        . + @ # # $ % .                                                         ",
"                                                    & * = - ; > > ; , ' ) !                                                     ",
"                                                ~ { ] ^ / , ( ( ( ( , / ^ _ : ~                                                 ",
"                                              < [ ^ = ( ( ( ( ( ( ( ( ( ( = ^ , <                                               ",
"                                            } | 1 ( ( ( ( ( ( ( ( ( ( ( ( ( ( 1 | }                                             ",
"                                          . ( ^ ( ( ( ( ( ( ( ( ( ( ( ( ( ( ( ( ^ 2 .                                           ",
"                                          ( 3 ( ( ( ( ( ( ( ( ( ( ( ( ( ( ( ( ( ( 3 (                                           ",
"                                        4 5 6 ( ( ( ( ( ( ( ( ( ( ( ( ( ( ( ( ( ( 6 5 7                                         ",
"                                        8 3 ( ( ( ( ( ( ( ( ( ( ( ( ( ( ( ( ( ( ( ( 3 8                                         ",
"                                        9 0 ( ( ( ( ( ( ( ( ( ( ( ( ( ( ( ( ( ( ( ( 0 a                                         ",
"                                      b ( = ( ( ( ( ( ( ( ( ( ( ( ( ( ( ( ( ( ( ( ( = ( b                                       ",
"                                      c ( , ( ( ( ( ( ( ( ( ( ( ( ( ( ( ( ( ( ( ( ( , ( c                                       ",
"                                      d , ( ( ( ( ( ( ( ( ( ( ( ( ( ( ( ( ( ( ( ( ( ( , d                                       ",
"                                      e , ( ( ( ( ( ( ( ( ( ( ( ( ( ( ( ( ( ( ( ( ( ( , e                                       ",
"                                      f a , ( ( ( ( ( ( ( ( ( ( ( ( ( ( ( ( ( ( ( ( , g f                                       ",
"                                      h 5 6 ( ( ( ( ( ( ( ( ( ( ( ( ( ( ( ( ( ( ( ( 6 i j                                       ",
"                                        k 3 ( ( ( ( ( ( ( ( ( ( ( ( ( ( ( ( ( ( ( ( 3 9                                         ",
"                                        l / ( ( ( ( ( ( ( ( ( ( ( ( ( ( ( ( ( ( ( ( / l                                         ",
"                                        m 2 n ( ( ( ( ( ( ( ( ( ( ( ( ( ( ( ( ( ( n 2 m                                         ",
"                                          ) 6 , ( ( ( ( ( ( ( ( ( ( ( ( ( ( ( ( , 6 o                                           ",
"                                            p 3 , ( ( ( ( ( ( ( ( ( ( ( ( ( ( , 3 p                                             ",
"              ~ q r s % _ t                   u > = ( ( ( ( ( ( ( ( ( ( ( ( [ > v                   w _ % s r x ~               ",
"          y = z , 0 A B 8 ' C D                 E ] A , ( ( ( ( ( ( ( ( , A / E                 D C ' , B A 0 , ) , y           ",
"        F ) G / 8 ( ( ( , / ^ ) H                 I C = ^ J ' - - ' J ^ = ) e                 H ) ^ / , ( ( ( 8 / G ) F         ",
"      K ] J ( ( ( ( ( ( ( ( ( B 6 %                   I , : , E E , = s L                   M / B ( ( ( ( ( ( ( ( ( J / i       ",
"    N = / ( ( ( ( ( ( ( ( ( ( ( O , P                       Q _ _ R                       P , O ( ( ( ( ( ( ( ( ( ( ( / = N     ",
"    k 3 ( ( ( ( ( ( ( ( ( ( ( ( ( ^ 2                                                     2 ^ ( ( ( ( ( ( ( ( ( ( ( ( ( 3 a     ",
"  S = 8 ( ( ( ( ( ( ( ( ( ( ( ( ( , , c                                                 c , , ( ( ( ( ( ( ( ( ( ( ( ( ( 8 = S   ",
"  u ^ ( ( ( ( ( ( ( ( ( ( ( ( ( ( ( ^ a                                                 a ^ ( ( ( ( ( ( ( ( ( ( ( ( ( ( ( ^ T   ",
"  9 B ( ( ( ( ( ( ( ( ( ( ( ( ( ( ( > 2                                                 2 > ( ( ( ( ( ( ( ( ( ( ( ( ( ( ( B 9   ",
"  ( / ( ( ( ( ( ( ( ( ( ( ( ( ( ( ( J (                                                 ( J ( ( ( ( ( ( ( ( ( ( ( ( ( ( ( / (   ",
"  u / ( ( ( ( ( ( ( ( ( ( ( ( ( ( ( J (                                                 a J ( ( ( ( ( ( ( ( ( ( ( ( ( ( ( / 8   ",
"  U n ( ( ( ( ( ( ( ( ( ( ( ( ( ( ( A 2                                                 8 A ( ( ( ( ( ( ( ( ( ( ( ( ( ( ( n v   ",
"  V ^ ( ( ( ( ( ( ( ( ( ( ( ( ( ( ( ^ 2                                                 2 ^ ( ( ( ( ( ( ( ( ( ( ( ( ( ( ( ^ 8   ",
"  a [ , ( ( ( ( ( ( ( ( ( ( ( ( ( , , b                     R _ _ R                     b , , ( ( ( ( ( ( ( ( ( ( ( ( ( , [ a   ",
"    u ^ ( ( ( ( ( ( ( ( ( ( ( ( ( G U                 I s = , E E , = ) e                 2 G ( ( ( ( ( ( ( ( ( ( ( ( ( ^ 9     ",
"    W = J ( ( ( ( ( ( ( ( ( ( ( 0 | X             Y 6 = ^ J ' - - ' J ^ = ) e             X | 0 ( ( ( ( ( ( ( ( ( ( ( J = W     ",
"      Z ) n ( ( ( ( ( ( ( ( ( A _ `             a ] A , ( ( ( ( ( ( ( ( , A / 9             `  .A ( ( ( ( ( ( ( ( ( n ) Z       ",
"        p ] 3 J , ( ( ( , B n = ..            v > [ ( ( ( ( ( ( ( ( ( ( ( ( [ > v             ..= n B , ( ( ( , J 3 _ p         ",
"          ~ +.' - = / - [ ' | @.            #.3 , ( ( ( ( ( ( ( ( ( ( ( ( ( ( , 3 #.            @.| ' [ - / = - = $.~           ",
"                %.[ s 6 &.                ) ) , ( ( ( ( ( ( ( ( ( ( ( ( ( ( ( ( , ) o                 *.6 s [ %.                ",
"                                        m 2 n ( ( ( ( ( ( ( ( ( ( ( ( ( ( ( ( ( ( n 2 m                                         ",
"                                        l / ( ( ( ( ( ( ( ( ( ( ( ( ( ( ( ( ( ( ( ( / l                                         ",
"                                        k 3 ( ( ( ( ( ( ( ( ( ( ( ( ( ( ( ( ( ( ( ( 3 k                                         ",
"                                      h 5 6 ( ( ( ( ( ( ( ( ( ( ( ( ( ( ( ( ( ( ( ( 6 5 j                                       ",
"                                      f a , ( ( ( ( ( ( ( ( ( ( ( ( ( ( ( ( ( ( ( ( , a f                                       ",
"                                      e ( ( ( ( ( ( ( ( ( ( ( ( ( ( ( ( ( ( ( ( ( ( ( , e                                       ",
"                                      d , ( ( ( ( ( ( ( ( ( ( ( ( ( ( ( ( ( ( ( ( ( ( , d                                       ",
"                                      c ( , ( ( ( ( ( ( ( ( ( ( ( ( ( ( ( ( ( ( ( ( , ( c                                       ",
"                                      b ( = ( ( ( ( ( ( ( ( ( ( ( ( ( ( ( ( ( ( ( ( = ( b                                       ",
"                                        a 0 ( ( ( ( ( ( ( ( ( ( ( ( ( ( ( ( ( ( ( ( 0 a                                         ",
"                                        8 3 ( ( ( ( ( ( ( ( ( ( ( ( ( ( ( ( ( ( ( ( 3 8                                         ",
"                                        4 5 6 ( ( ( ( ( ( ( ( ( ( ( ( ( ( ( ( ( ( 6 9 4                                         ",
"                                          ( 3 ( ( ( ( ( ( ( ( ( ( ( ( ( ( ( ( ( ( 3 (                                           ",
"                                          . ( ^ ( ( ( ( ( ( ( ( ( ( ( ( ( ( ( ( ^ 2 .                                           ",
"                                            =., 1 ( ( ( ( ( ( ( ( ( ( ( ( ( ( 1 | -.                                            ",
"                                              < [ ^ = ( ( ( ( ( ( ( ( ( ( = ^ [ <                                               ",
"                                                ~ - C ^ / , ( ( ( ( , / ^ ] : ~                                                 ",
"                                                    f ' = - ; > > ; E = ) !                                                     ",
"                                                        @.;.@ >.>.$ % .                                                         ",
"                                                                                                                                ",
"                                                                                                                                "};
